<?xml version="1.0" encoding="UTF-8"?>
<svg width="140px" height="140px" viewBox="0 0 140 140" version="1.1" xmlns="http://www.w3.org/2000/svg" xmlns:xlink="http://www.w3.org/1999/xlink">
    <title>DataCheck Icon</title>
    <g id="Design" stroke="none" stroke-width="1" fill="none" fill-rule="evenodd">
        <g id="Product---Step-4-(Results)" transform="translate(-264.000000, -2972.000000)">
            <g id="Group-8" transform="translate(232.000000, 2940.000000)">
                <g id="DataCheck-Icon" transform="translate(32.000000, 32.000000)">
                    <rect id="Rectangle" stroke="#00CBD8" stroke-width="3.73333333" x="1.86666667" y="1.86666667" width="136.266667" height="136.266667"></rect>
                    <g id="Group-5" transform="translate(32.666667, 32.666667)" stroke="#00C8D5" stroke-width="1.86666667">
                        <g id="Group-3">
                            <rect id="Rectangle" x="0.933333333" y="0.933333333" width="29.8666667" height="29.8666667"></rect>
                            <polyline id="Path-5" points="8.46222222 13.9626667 14.0155556 19.04 23.2711111 10.5777778"></polyline>
                        </g>
                        <g id="Group-2" transform="translate(0.000000, 42.933333)">
                            <rect id="Rectangle-Copy-2" x="0.933333333" y="0.933333333" width="29.8666667" height="29.8666667"></rect>
                            <polyline id="Path-5-Copy-2" points="8.46222222 13.9626667 14.0155556 19.04 23.2711111 10.5777778"></polyline>
                        </g>
                        <g id="Group-4" transform="translate(42.933333, 0.000000)">
                            <rect id="Rectangle-Copy" x="0.933333333" y="0.933333333" width="29.8666667" height="29.8666667"></rect>
                            <polyline id="Path-5-Copy" points="8.46222222 13.9626667 14.0155556 19.04 23.2711111 10.5777778"></polyline>
                        </g>
                        <g id="Group" transform="translate(42.933333, 42.933333)">
                            <rect id="Rectangle-Copy-3" x="0.933333333" y="0.933333333" width="29.8666667" height="29.8666667"></rect>
                            <line x1="10.5777778" y1="21.1555556" x2="21.1555556" y2="10.5777778" id="Path-5-Copy-3"></line>
                            <line x1="10.5777778" y1="21.1555556" x2="21.1555556" y2="10.5777778" id="Path-5-Copy-3" transform="translate(15.866667, 15.866667) rotate(-90.000000) translate(-15.866667, -15.866667) "></line>
                        </g>
                    </g>
                </g>
            </g>
        </g>
    </g>
</svg>