<svg width="109" height="89" viewBox="0 0 109 89" fill="none" xmlns="http://www.w3.org/2000/svg">
<rect x="16" y="0.800049" width="76" height="13" stroke="#00C8D5"/>
<path d="M84.1 7.65005H67.3" stroke="#00CBD8"/>
<circle cx="22.5" cy="7.30007" r="1.6" stroke="#00C8D5"/>
<circle cx="28.8" cy="7.30007" r="1.6" stroke="#00C8D5"/>
<rect x="16" y="18.3" width="76" height="13" stroke="#00C8D5"/>
<path d="M84.1 25.15H67.3" stroke="#00CBD8"/>
<circle cx="22.5" cy="24.8001" r="1.6" stroke="#00C8D5"/>
<circle cx="28.8" cy="24.8001" r="1.6" stroke="#00C8D5"/>
<rect x="16" y="35.8" width="76" height="13" stroke="#00C8D5"/>
<path d="M84.1 42.65H67.3" stroke="#00CBD8"/>
<circle cx="22.5" cy="42.3001" r="1.6" stroke="#00C8D5"/>
<circle cx="28.8" cy="42.3001" r="1.6" stroke="#00C8D5"/>
<rect x="16" y="53.3" width="76" height="13" stroke="#00C8D5"/>
<path d="M84.1 60.15H67.3" stroke="#00CBD8"/>
<circle cx="22.5" cy="59.8001" r="1.6" stroke="#00C8D5"/>
<circle cx="28.8" cy="59.8001" r="1.6" stroke="#00C8D5"/>
<circle cx="5.34998" cy="83.25" r="4.75" stroke="#00C8D5"/>
<circle cx="103.35" cy="83.25" r="4.75" stroke="#00C8D5"/>
<circle cx="54.35" cy="83.25" r="4.75" stroke="#00C8D5"/>
<path d="M10.6 83.25H49.45" stroke="#00CBD8"/>
<path d="M59.6 83.25H98.45" stroke="#00CBD8"/>
<path d="M54.35 66.4501V78.7001" stroke="#00CBD8"/>
</svg>
