<?xml version="1.0" encoding="UTF-8"?>
<svg width="140px" height="140px" viewBox="0 0 140 140" version="1.1" xmlns="http://www.w3.org/2000/svg" xmlns:xlink="http://www.w3.org/1999/xlink">
    <title>GearDrive Icon</title>
    <g id="Design" stroke="none" stroke-width="1" fill="none" fill-rule="evenodd">
        <g id="Product---Step-5-(all-products)" transform="translate(-267.000000, -1998.000000)">
            <g id="Group-8-Copy-4" transform="translate(235.000000, 1966.000000)">
                <g id="GearDrive-Icon" transform="translate(32.000000, 32.000000)">
                    <rect id="Rectangle" stroke="#00CBD8" stroke-width="3.73333333" x="1.86666667" y="1.86666667" width="136.266667" height="136.266667"></rect>
                    <g id="Group-7" transform="translate(23.333333, 23.333333)" fill-rule="nonzero" stroke="#00C8D5" stroke-width="1.86666667">
                        <path d="M52.8645833,0.933333333 C53.6123751,0.933333333 54.2902612,1.23796587 54.781356,1.72906065 C55.2724508,2.22015543 55.5770833,2.89804157 55.5770833,3.64583333 L55.5770833,9.75850928 C59.4277089,10.6826049 63.0855443,12.1962795 66.4656151,14.2657405 L70.7867159,9.94544814 C71.3154221,9.41674197 72.0100596,9.1528361 72.7044678,9.1528361 C73.398876,9.1528361 74.0935133,9.41674193 74.6222195,9.9454481 L83.3878853,18.7111139 C83.9165977,19.2398263 84.1804972,19.9344743 84.1804972,20.6289545 C84.1804972,21.3235546 83.9165156,22.0184341 83.3878852,22.5473295 L79.0675562,26.8676584 C81.137036,30.2477459 82.650723,33.9056018 83.5748241,37.75625 L89.6875,37.75625 C90.4352918,37.75625 91.1131779,38.0608825 91.6042727,38.5519773 C92.0953675,39.0430721 92.4,39.7209582 92.4,40.46875 L92.4,52.8645833 C92.4,53.6123751 92.0953675,54.2902612 91.6042727,54.781356 C91.1131779,55.2724508 90.4352918,55.5770833 89.6875,55.5770833 L83.563561,55.5770833 C82.6360893,59.4228729 81.1196388,63.0737615 79.0501383,66.448873 L83.3871732,70.7867159 C83.9158793,71.3154221 84.1797852,72.0100596 84.1797852,72.7044678 C84.1797852,73.398876 83.9158794,74.0935133 83.3871464,74.6222463 L74.6222194,83.3878853 C74.0935071,83.9165977 73.3988591,84.1804972 72.7043788,84.1804972 C72.0097787,84.1804972 71.3148992,83.9165156 70.7860651,83.3879465 L66.4370239,79.0380977 C63.0632618,81.0993507 59.4163009,82.6071171 55.5770833,83.5285587 L55.5770833,89.6875 C55.5770833,90.4352918 55.2724508,91.1131779 54.781356,91.6042727 C54.2902612,92.0953675 53.6123751,92.4 52.8645833,92.4 L40.46875,92.4 C39.7209582,92.4 39.0430721,92.0953675 38.5519773,91.6042727 C38.0608825,91.1131779 37.75625,90.4352918 37.75625,89.6875 L37.75625,83.5173117 C33.92195,82.5923617 30.2808558,81.0827346 26.9139541,79.0212606 L22.5474948,83.3877199 C22.0184341,83.9165156 21.3235546,84.1804972 20.6289545,84.1804972 C19.9344743,84.1804972 19.2398263,83.9165977 18.7111139,83.3878852 L9.94544806,74.6222194 C9.41674193,74.0935133 9.1528361,73.398876 9.1528361,72.7044678 C9.1528361,72.0100596 9.41674197,71.3154221 9.94550909,70.7866549 L14.3120366,66.4193202 C12.2505811,63.052435 10.7409662,59.4113609 9.81602159,55.5770833 L3.64583333,55.5770833 C2.89804157,55.5770833 2.22015543,55.2724508 1.72906065,54.781356 C1.23796587,54.2902612 0.933333333,53.6123751 0.933333333,52.8645833 L0.933333333,40.46875 C0.933333333,39.7209582 1.23796587,39.0430721 1.72906065,38.5519773 C2.22015543,38.0608825 2.89804157,37.75625 3.64583333,37.75625 L9.8048126,37.75625 C10.7262561,33.9161741 12.2340117,30.2692501 14.2952592,26.8964285 L9.94544814,22.5466175 C9.41674197,22.0179112 9.1528361,21.3232738 9.1528361,20.6288655 C9.1528361,19.9344573 9.41674193,19.23982 9.9454481,18.7111139 L18.7111139,9.94544806 C19.2398263,9.41673565 19.9344743,9.1528361 20.6289545,9.1528361 C21.3235546,9.1528361 22.0184341,9.4168177 22.547268,9.94538662 L26.8844458,14.2833725 C30.2595536,12.2128262 33.9104565,10.6973571 37.75625,9.76976148 L37.75625,3.64583333 C37.75625,2.89804157 38.0608825,2.22015543 38.5519773,1.72906065 C39.0430721,1.23796587 39.7209582,0.933333333 40.46875,0.933333333 Z" id="Path"></path>
                        <circle id="Oval" cx="46.6666667" cy="46.6666667" r="30.8"></circle>
                        <path d="M70.9333333,46.6666667 C70.9333333,33.2645567 60.0687766,22.4 46.6666667,22.4" id="Path" stroke-linecap="round"></path>
                        <circle id="Oval" cx="46.6666667" cy="46.6666667" r="9.33333333"></circle>
                    </g>
                </g>
            </g>
        </g>
    </g>
</svg>