<?xml version="1.0" encoding="UTF-8"?>
<svg width="140px" height="140px" viewBox="0 0 140 140" version="1.1" xmlns="http://www.w3.org/2000/svg" xmlns:xlink="http://www.w3.org/1999/xlink">
    <title>Heath Icon</title>
    <g id="Design" stroke="none" stroke-width="1" fill="none" fill-rule="evenodd">
        <g id="Product---Step-5-(all-products)" transform="translate(-267.000000, -1762.000000)">
            <g id="Group-8-Copy-3" transform="translate(235.000000, 1730.000000)">
                <g id="Heath-Icon" transform="translate(32.000000, 32.000000)">
                    <rect id="Rectangle" stroke="#00CBD8" stroke-width="3.73333333" x="1.86666667" y="1.86666667" width="136.266667" height="136.266667"></rect>
                    <path d="M69.9999067,23.33296 C95.7729733,23.33296 116.666573,44.22656 116.666573,69.9996267 C116.666573,95.7726933 95.7729733,116.666293 69.9999067,116.666293 C44.22684,116.666293 23.33324,95.7726933 23.33324,69.9996267 C23.33324,44.22656 44.22684,23.33296 69.9999067,23.33296 Z M69.9999067,25.1996267 C45.2973733,25.1996267 25.1999067,45.2970933 25.1999067,69.9996267 C25.1999067,94.7030933 45.2973733,114.799627 69.9999067,114.799627 C94.7033733,114.799627 114.799907,94.7030933 114.799907,69.9996267 C114.799907,45.2970933 94.7033733,25.1996267 69.9999067,25.1996267 Z M70.3107067,104.33976 C70.61964,104.33976 70.9341733,104.378027 71.2477733,104.459227 C73.2441733,104.97536 74.44444,107.011893 73.9283067,109.008293 C73.4933733,110.691093 71.97764,111.808293 70.3163067,111.808293 C70.0073733,111.808293 69.69284,111.769093 69.37924,111.688827 C67.38284,111.172693 66.1825733,109.13616 66.6987067,107.13976 C67.13364,105.45696 68.6503067,104.33976 70.3107067,104.33976 Z M60.4715067,103.130253 C60.78044,103.130253 61.0949733,103.16852 61.40764,103.24972 C63.4049733,103.765853 64.6043067,105.801453 64.0881733,107.798787 C63.65324,109.481587 62.1375067,110.598787 60.4761733,110.598787 C60.16724,110.598787 59.8527067,110.559587 59.54004,110.47932 C57.54364,109.963187 56.3433733,107.926653 56.8595067,105.930253 C57.29444,104.24652 58.8101733,103.130253 60.4715067,103.130253 Z M80.1344133,102.96804 C81.77148,102.96804 83.2732133,104.053507 83.73148,105.70924 C84.2793467,107.696307 83.11268,109.753373 81.1256133,110.30124 C80.7933467,110.392707 80.4592133,110.436573 80.1297467,110.436573 C78.4917467,110.436573 76.9900133,109.351107 76.5336133,107.695373 C75.9848133,105.70924 77.15148,103.652173 79.1385467,103.104307 C79.4708133,103.011907 79.8049467,102.96804 80.1344133,102.96804 Z M70.3107067,106.206427 L70.1620242,106.212338 C69.3759071,106.275038 68.7068008,106.830827 68.50564,107.60736 C68.2489733,108.603227 68.85004,109.62336 69.84684,109.88096 C70.00084,109.921093 70.1595067,109.941627 70.3163067,109.941627 C71.16564,109.941627 71.90764,109.36576 72.12044,108.540693 C72.37804,107.544827 71.7769733,106.524693 70.7801733,106.26616 C70.6775067,106.239404 70.5727659,106.221775 70.4678869,106.212995 L70.3107067,106.206427 Z M60.4715067,104.99692 L60.3228151,105.002831 C59.5366038,105.065528 58.8667224,105.621265 58.66644,106.39692 C58.5423067,106.880387 58.6123067,107.38252 58.86524,107.812787 C59.1191067,108.24212 59.52324,108.54732 60.0067067,108.671453 C60.16164,108.711587 60.3193733,108.73212 60.4761733,108.73212 C61.3255067,108.73212 62.06844,108.156253 62.2803067,107.331187 C62.4053733,106.848653 62.3353733,106.345587 62.08244,105.916253 C61.8285733,105.48692 61.42444,105.18172 60.9409733,105.056653 C60.8376844,105.029898 60.7331511,105.012268 60.6284795,105.003488 L60.4715067,104.99692 Z M80.1344133,104.834707 C79.9664133,104.834707 79.7993467,104.857107 79.63508,104.90284 C78.6429467,105.17724 78.05868,106.20764 78.3321467,107.19884 C78.5561467,108.006173 79.2944133,108.569907 80.1297467,108.569907 C80.2968133,108.569907 80.4648133,108.547507 80.6281467,108.501773 C81.1097467,108.36924 81.5101467,108.057507 81.7556133,107.623507 C82.00108,107.189507 82.0636133,106.68644 81.93108,106.205773 C81.7089467,105.39844 80.9697467,104.834707 80.1344133,104.834707 Z M51.28312,99.42156 C51.9056533,99.42156 52.5356533,99.5774267 53.1152533,99.9050267 C54.9109867,100.918627 55.54472,103.19596 54.5301867,104.991693 C53.8441867,106.206893 52.57952,106.88916 51.2765867,106.88916 C50.6549867,106.88916 50.0240533,106.734227 49.4444533,106.405693 C47.64872,105.392093 47.01592,103.115693 48.02952,101.31996 C48.71552,100.103827 49.9801867,99.42156 51.28312,99.42156 Z M89.2599867,99.1088933 C90.5414533,99.1088933 91.7883867,99.76876 92.48372,100.954093 C93.5262533,102.733027 92.9307867,105.019693 91.1518533,106.06316 C90.5591867,106.411293 89.9086533,106.576493 89.2674533,106.576493 C87.9859867,106.576493 86.73812,105.916627 86.04372,104.731293 C85.0002533,102.953293 85.59572,100.665693 87.3746533,99.6222267 C87.9682533,99.2750267 88.6187867,99.1088933 89.2599867,99.1088933 Z M51.28312,101.288227 L51.1286017,101.294624 C50.5149314,101.345541 49.9594379,101.697314 49.6544533,102.23836 C49.1485867,103.13436 49.46592,104.274893 50.3628533,104.78076 C50.6465867,104.941293 50.9536533,105.022493 51.2765867,105.022493 C51.9504533,105.022493 52.5748533,104.658493 52.9052533,104.073293 C53.41112,103.17636 53.0937867,102.03676 52.1968533,101.52996 C51.9611867,101.396182 51.70802,101.317497 51.4432947,101.294985 L51.28312,101.288227 Z M89.2599867,100.97556 L89.0957978,100.982906 C88.8233163,101.007319 88.5579644,101.092227 88.3191867,101.232227 C87.4315867,101.753027 87.13292,102.900093 87.6527867,103.787693 C87.9878533,104.356093 88.60572,104.709827 89.2674533,104.709827 C89.5950533,104.709827 89.9207867,104.62116 90.2082533,104.45316 C91.0958533,103.93236 91.39452,102.785293 90.87372,101.897693 C90.5652892,101.373016 90.0150975,101.031251 89.4118065,100.981776 L89.2599867,100.97556 Z M43.3552933,93.46512 C44.29796,93.46512 45.24156,93.82072 45.9676933,94.5328533 C47.4404933,95.9748533 47.46476,98.3389867 46.0218267,99.8117867 C45.2910267,100.558453 44.32316,100.931787 43.3552933,100.931787 C42.4126267,100.931787 41.4690267,100.57712 40.7428933,99.8649867 C39.2700933,98.4229867 39.2458267,96.0588533 40.68876,94.5860533 C41.41956,93.8393867 42.3874267,93.4660533 43.3552933,93.46512 Z M69.9999067,39.2816667 C86.9651067,39.2816667 100.717773,53.0343333 100.717773,69.9995333 C100.717773,86.9656667 86.9651067,100.718333 69.9999067,100.718333 C53.0347067,100.718333 39.28204,86.9656667 39.28204,69.9995333 C39.28204,53.0343333 53.0347067,39.2816667 69.9999067,39.2816667 Z M97.0893467,93.0230933 C98.0376133,93.0230933 98.9849467,93.3814933 99.7129467,94.10016 C101.179213,95.5496267 101.193213,97.9128267 99.7456133,99.3800267 C99.0148133,100.12016 98.0516133,100.48976 97.0884133,100.48976 C96.14108,100.48976 95.1928133,100.13136 94.4648133,99.4126933 C92.9985467,97.96416 92.9845467,95.6000267 94.4321467,94.1328267 C95.16388,93.3936267 96.1261467,93.0230933 97.0893467,93.0230933 Z M43.3551067,95.3312267 L43.1886236,95.3393775 C42.7455501,95.3789027 42.3359896,95.5716533 42.02156,95.89272 C41.30196,96.6281867 41.31316,97.8116533 42.04956,98.5321867 C42.4004933,98.8765867 42.86436,99.06512 43.3552933,99.06512 C43.86116,99.06512 44.3352933,98.86632 44.6890267,98.50512 C45.0380933,98.14952 45.22756,97.6781867 45.22196,97.1788533 C45.21636,96.6804533 45.01756,96.2137867 44.6610267,95.8656533 C44.3490859,95.55952 43.9479139,95.3765406 43.5178175,95.3390024 L43.3551067,95.3312267 Z M69.9999067,41.1483333 C54.09124,41.1483333 41.1487067,54.0908667 41.1487067,69.9995333 C41.1487067,85.9091333 54.09124,98.8516667 69.9999067,98.8516667 C85.9085733,98.8516667 98.8511067,85.9091333 98.8511067,69.9995333 C98.8511067,54.0908667 85.9085733,41.1483333 69.9999067,41.1483333 Z M97.0893467,94.88976 L96.9229201,94.8970052 C96.4828067,94.9355164 96.0748133,95.1265156 95.7612133,95.4450933 C95.03788,96.1768267 95.0453467,97.3612267 95.77708,98.08456 C96.1289467,98.43176 96.59468,98.6230933 97.0884133,98.6230933 C97.59148,98.6230933 98.0637467,98.42616 98.41748,98.06776 C99.13988,97.3360267 99.1324133,96.15256 98.40068,95.4282933 C98.0879096,95.1196711 97.6851705,94.9342028 97.2527696,94.8967978 L97.0893467,94.88976 Z M37.233,85.66488 C38.5088667,85.66488 39.7520667,86.3191467 40.4492667,87.49608 C41.4992667,89.2703467 40.9131333,91.5598133 39.1388667,92.6107467 C38.5415333,92.9635467 37.8863333,93.13248 37.2404667,93.13248 C35.9646,93.13248 34.7223333,92.4782133 34.0242,91.3003467 C32.9742,89.5270133 33.5603333,87.2366133 35.3346,86.1866133 C35.931,85.83288 36.5871333,85.66488 37.233,85.66488 Z M103.081253,85.1226133 C103.708453,85.1226133 104.344053,85.2803467 104.927387,85.6126133 C106.71752,86.63368 107.34192,88.9138133 106.321787,90.70488 C105.632987,91.9126133 104.372053,92.5902133 103.07472,92.5902133 C102.44752,92.5902133 101.812853,92.43248 101.22952,92.1002133 C99.4384533,91.0791467 98.8140533,88.79808 99.8341867,87.0079467 C100.522987,85.8002133 101.78392,85.1226133 103.081253,85.1226133 Z M37.2339333,87.5315467 C36.9026,87.5315467 36.5740667,87.62208 36.2856667,87.7919467 C35.8563333,88.0467467 35.5520667,88.4518133 35.4279333,88.93528 C35.3056667,89.4178133 35.3766,89.92088 35.6304667,90.3502133 C35.9702,90.92328 36.5722,91.2658133 37.2404667,91.2658133 C37.5718,91.2658133 37.8994,91.17528 38.1878,91.0054133 C39.0735333,90.4799467 39.3675333,89.3338133 38.843,88.4471467 C38.5032667,87.8731467 37.9022,87.5315467 37.2339333,87.5315467 Z M103.082187,86.98928 L102.928098,86.9956277 C102.316135,87.0461526 101.762166,87.3952082 101.45632,87.9319467 C100.94672,88.82608 101.259387,89.9675467 102.15352,90.47808 C102.440053,90.6414133 102.74992,90.7235467 103.07472,90.7235467 C103.745787,90.7235467 104.36832,90.3623467 104.699653,89.78088 C104.946987,89.34688 105.00952,88.8438133 104.878853,88.36408 C104.74632,87.88248 104.43552,87.4811467 104.002453,87.2347467 C103.764453,87.0986356 103.509601,87.0189133 103.243299,86.9961201 L103.082187,86.98928 Z M91.3917529,56.0267086 C91.8102738,56.2589648 91.98038,56.7654309 91.8022837,57.1974658 L91.7549581,57.2956862 L83.8318914,71.5728862 C83.4974688,72.1755088 82.6614349,72.2118083 82.2675756,71.6785283 L82.2028531,71.5785068 L78.9618667,65.8317333 L77.6859325,67.3902923 C77.3302033,67.8243315 76.6836578,67.8433323 76.3013701,67.4561492 L76.2236984,67.3669675 L73.2732,63.5226667 L67.6699807,84.4772621 C67.466151,85.2394378 66.4824711,85.4083469 66.0268527,84.8037721 L65.9654978,84.7121231 L60.1486667,74.9 L56.5017679,77.798869 C56.0348948,78.1698412 55.3552563,78.0108754 55.091562,77.4962546 L55.0471472,77.3956379 L52.3721333,70.2548 L47.2819493,72.5021524 C46.8440461,72.6953971 46.337667,72.5250322 46.100937,72.1221286 L46.0512476,72.0250826 C45.8580029,71.5871794 46.0283678,71.0808003 46.4312714,70.8440704 L46.5283174,70.7943809 L52.522184,68.1493143 C52.9801992,67.9471942 53.5088817,68.1433576 53.7303652,68.5787852 L53.7729862,68.6756954 L56.3444,75.5393333 L59.8251655,72.773931 C60.238661,72.445372 60.8340662,72.5280273 61.1462447,72.9362489 L61.2086355,73.0286769 L66.4393333,81.8524 L71.9594859,61.2123379 C72.1494479,60.5020175 73.0350777,60.291932 73.5272232,60.7990952 L73.6015016,60.8851658 L76.9878667,65.2969333 L78.3832675,63.594641 C78.7733412,63.1186968 79.4975722,63.1496504 79.8522751,63.6264693 L79.9180802,63.7277598 L83.0088,69.2076 L90.1227752,56.3899138 C90.3728974,55.939199 90.941038,55.7765864 91.3917529,56.0267086 Z M33.3419333,76.5484533 C34.9734,76.5484533 36.4723333,77.6264533 36.9343333,79.27472 C37.4906,81.25992 36.3332667,83.32072 34.3480667,83.87792 C34.0111333,83.9721867 33.6714,84.0169867 33.3372667,84.0169867 C31.7058,84.0169867 30.2078,82.93992 29.7448667,81.29072 C29.1886,79.30552 30.3459333,77.24472 32.3311333,76.68752 C32.6680667,76.5941867 33.0078,76.5484533 33.3419333,76.5484533 Z M106.82196,75.94328 C107.136493,75.94328 107.455693,75.9834133 107.77396,76.0674133 C109.76756,76.5910133 110.96036,78.6331467 110.435827,80.6267467 C109.99436,82.30208 108.48236,83.4118133 106.82756,83.4118133 C106.513027,83.4118133 106.193827,83.3726133 105.87556,83.2886133 C103.88196,82.7650133 102.690093,80.72288 103.214627,78.7283467 C103.654227,77.05208 105.16716,75.9442133 106.82196,75.94328 Z M33.3419333,78.41512 L33.1721704,78.4228978 C33.0591333,78.4332681 32.9465111,78.4540089 32.8351333,78.48512 C32.3554,78.6204533 31.9568667,78.9340533 31.7123333,79.3680533 C31.4678,79.8029867 31.4080667,80.3069867 31.5415333,80.78672 C31.7674,81.5893867 32.5056667,82.15032 33.3372667,82.15032 C33.5071333,82.15032 33.677,82.1269867 33.8431333,82.08032 C34.3238,81.9449867 34.7223333,81.6313867 34.9668667,81.1964533 C35.2114,80.7633867 35.2711333,80.2593867 35.1367333,79.77872 C34.9250314,79.023269 34.258612,78.4819486 33.4876319,78.4208779 L33.3419333,78.41512 Z M106.822893,77.8099467 C105.97636,77.81088 105.235293,78.3830133 105.01876,79.2034133 C104.757427,80.19928 105.35476,81.22128 106.350627,81.4835467 C106.507427,81.52368 106.66796,81.5451467 106.82756,81.5451467 C107.67316,81.5451467 108.414227,80.9730133 108.629827,80.1526133 C108.892093,79.1567467 108.29476,78.1347467 107.299827,77.87248 C107.142093,77.83048 106.98156,77.8099467 106.822893,77.8099467 Z M31.9283067,66.7366 C33.9695067,66.7366 35.6355067,68.3783333 35.6607067,70.4242 C35.685143,72.4234566 34.134243,74.0751737 32.1603013,74.1964198 L31.97404,74.2032667 L31.92644,74.2032667 C29.8861733,74.2032667 28.21924,72.5624667 28.1949733,70.5166 C28.170537,68.5173434 29.721437,66.8656263 31.6953787,66.7443802 L31.9283067,66.7366 L31.9283067,66.7366 Z M108.077013,66.1086533 C109.720613,66.1086533 111.22608,67.20252 111.67688,68.8647867 C112.218213,70.8546533 111.043147,72.9051867 109.05328,73.4455867 C108.72568,73.5351867 108.397147,73.5771867 108.072347,73.5771867 C106.428747,73.5771867 104.92328,72.4842533 104.47248,70.8219867 C103.93208,68.83212 105.106213,66.7815867 107.09608,66.2411867 C107.42368,66.1515867 107.753147,66.1086533 108.077013,66.1086533 Z M31.92924,68.6032667 L31.9049733,68.6032667 C31.40564,68.6098 30.9389733,68.8104667 30.59084,69.167 C30.2427067,69.5235333 30.0551067,69.9948667 30.0607067,70.4932667 C30.0737733,71.5096667 30.91004,72.3366 31.92644,72.3366 C32.45004,72.3300667 32.9157733,72.1303333 33.2639067,71.7728667 C33.61204,71.4172667 33.8005733,70.9459333 33.79404,70.4475333 C33.7809733,69.4311333 32.9447067,68.6032667 31.92924,68.6032667 Z M108.077107,67.9752267 L107.912678,67.9827521 C107.802613,67.9926385 107.693102,68.0123422 107.58608,68.0415867 C107.10448,68.1722533 106.702213,68.4830533 106.455813,68.9151867 C106.207547,69.3482533 106.143147,69.85132 106.27288,70.3319867 C106.49408,71.14492 107.234213,71.71052 108.072347,71.71052 C108.237547,71.71052 108.402747,71.6890533 108.564213,71.6451867 C109.04488,71.5135867 109.447147,71.20372 109.69448,70.7706533 C109.942747,70.33852 110.007147,69.83452 109.87648,69.3547867 C109.668292,68.5896729 109.001252,68.0428236 108.223962,67.9811358 L108.077107,67.9752267 Z M33.09404,56.8910533 C33.3983067,56.8910533 33.70724,56.92932 34.01524,57.0067867 C36.01444,57.51452 37.2231067,59.5463867 36.7153733,61.5446533 C36.28604,63.23492 34.7665733,64.3595867 33.09964,64.3595867 C32.7953733,64.3595867 32.48644,64.3222533 32.17844,64.2438533 C30.17924,63.73612 28.9705733,61.7042533 29.4783067,59.70692 C29.90764,58.0166533 31.4271067,56.8919867 33.09404,56.8910533 Z M106.746267,56.2849467 C108.389867,56.2849467 109.895333,57.3788133 110.346133,59.0401467 C110.887467,61.0300133 109.7124,63.08148 107.722533,63.62188 C107.394933,63.7105467 107.065467,63.75348 106.7416,63.75348 C105.098,63.75348 103.592533,62.6596133 103.141733,60.99828 C102.601333,59.0084133 103.775467,56.9569467 105.765333,56.4165467 C106.092933,56.32788 106.421467,56.2849467 106.746267,56.2849467 Z M33.09404,58.75772 L32.9447279,58.7636694 C32.1554102,58.8267705 31.4856322,59.3860729 31.2871067,60.16612 C31.16484,60.6486533 31.23764,61.1507867 31.49244,61.5791867 C31.7481733,62.00852 32.1541733,62.3127867 32.63764,62.43412 C32.7897733,62.47332 32.94564,62.49292 33.09964,62.49292 C33.9527067,62.49292 34.69564,61.9142533 34.90564,61.0854533 C35.02884,60.6019867 34.95604,60.0998533 34.70124,59.6714533 C34.4455067,59.2430533 34.0395067,58.9387867 33.55604,58.81652 C33.4546178,58.7903867 33.3515363,58.7729644 33.2484548,58.7642533 L33.09404,58.75772 Z M106.746267,58.1516133 L106.58124,58.1590454 C106.471452,58.1689319 106.362356,58.1886356 106.255333,58.21788 C105.261333,58.4876133 104.6724,59.5152133 104.942133,60.50828 C105.163333,61.32028 105.902533,61.8868133 106.7416,61.8868133 C106.905867,61.8868133 107.072,61.8653467 107.232533,61.8205467 C108.226533,61.5508133 108.815467,60.5232133 108.545733,59.5301467 C108.337545,58.7659114 107.669679,58.2191137 106.89307,58.157429 L106.746267,58.1516133 Z M36.7709067,47.6826 C37.38784,47.6826 38.0131733,47.8356667 38.5899733,48.1586 C40.38944,49.1647333 41.0325067,51.4383333 40.0263733,53.2387333 C39.34224,54.4623333 38.0729067,55.1511333 36.7643733,55.1511333 C36.14744,55.1511333 35.5221067,54.9980667 34.9453067,54.6751333 C33.14584,53.669 32.5027733,51.3944667 33.50984,49.595 C34.19304,48.3714 35.4633067,47.6826 36.7709067,47.6826 Z M102.918107,47.1375333 C104.205173,47.1375333 105.456773,47.8039333 106.15024,48.9958 C107.185307,50.7784667 106.580507,53.0642 104.79784,54.1002 C104.20704,54.4427333 103.561173,54.6060667 102.925573,54.6060667 C101.638507,54.6060667 100.386907,53.9396667 99.69344,52.7478 C98.6583733,50.9651333 99.2631733,48.6794 101.04584,47.6443333 C101.63664,47.3008667 102.281573,47.1384667 102.918107,47.1375333 Z M36.77184,49.5492667 L36.6163102,49.5557121 C35.9988522,49.6070118 35.4426297,49.9613692 35.1385067,50.505 C34.6363733,51.4038 34.9583733,52.5434 35.8571733,53.0455333 C36.13904,53.2042 36.44424,53.2844667 36.7643733,53.2844667 C37.4419733,53.2844667 38.0673067,52.9167333 38.3967733,52.3278 C38.8989067,51.4299333 38.57784,50.2894 37.67904,49.7872667 C37.4528,49.66108 37.212224,49.584472 36.9616128,49.5588763 L36.77184,49.5492667 Z M102.918107,49.0042 L102.754272,49.011658 C102.483562,49.0357259 102.224951,49.1179111 101.98384,49.2571333 C101.55264,49.5082 101.24464,49.9123333 101.116773,50.3939333 C100.98984,50.8755333 101.05704,51.3786 101.307173,51.8098 C101.641307,52.3828667 102.26104,52.7394 102.925573,52.7394 C103.251307,52.7394 103.57424,52.6516667 103.85984,52.4855333 C104.29104,52.2354 104.59904,51.8322 104.725973,51.3506 C104.85384,50.8680667 104.78664,50.365 104.535573,49.9338 C104.228004,49.4048154 103.676288,49.0603325 103.070555,49.0104653 L102.918107,49.0042 Z M42.6916933,39.7337733 C43.6296933,39.7337733 44.5676933,40.0847067 45.2928933,40.7903067 C46.7722267,42.2267067 46.8058267,44.5899067 45.3694267,46.06924 C44.6376933,46.82244 43.6642267,47.20044 42.6916933,47.20044 C41.7536933,47.20044 40.8156933,46.8495067 40.0904933,46.14484 C38.61116,44.70844 38.57756,42.34524 40.01396,40.8659067 C40.7456933,40.1127067 41.7182267,39.7337733 42.6916933,39.7337733 Z M96.8678667,39.2881067 C97.8208,39.2881067 98.7737333,39.6511733 99.5017333,40.3763733 C100.963333,41.83144 100.968,44.19464 99.5129333,45.6553067 C98.784,46.3879733 97.8254667,46.7547733 96.8678667,46.7547733 C95.9149333,46.7547733 94.962,46.3917067 94.234,45.6665067 C92.7724,44.21144 92.7668,41.8473067 94.2228,40.3875733 C94.9517333,39.6549067 95.9102667,39.2881067 96.8678667,39.2881067 Z M42.6926267,41.60044 C42.1830267,41.60044 41.7070267,41.80204 41.35236,42.16604 C40.63556,42.9043067 40.65236,44.0887067 41.3906267,44.80644 C41.7406267,45.1471067 42.20356,45.3337733 42.6916933,45.3337733 C43.20036,45.3337733 43.67636,45.1331067 44.0310267,44.7681733 C44.3782267,44.4107067 44.5658267,43.9393733 44.55836,43.4409733 C44.5508933,42.9425733 44.3492933,42.4759067 43.99276,42.1277733 C43.64276,41.78804 43.1798267,41.60044 42.6926267,41.60044 Z M96.8678633,41.1547733 L96.7023673,41.1619494 C96.2647144,41.2000919 95.8589333,41.3892474 95.5453333,41.7045067 C95.1934667,42.0573067 95.0002667,42.5267733 95.0011933,43.0251733 C95.0021333,43.5235733 95.1972,43.9921067 95.5509333,44.3439733 C95.9028,44.6949067 96.3704,44.8881067 96.8678633,44.8881067 C97.3672,44.8881067 97.8376,44.69304 98.1904,44.3383733 C98.5422667,43.9855733 98.7354667,43.5161067 98.7345334,43.0177067 C98.7336,42.5193067 98.5385333,42.0507733 98.1848,41.6989067 C97.8720296,41.3869659 97.4670782,41.199654 97.0322167,41.1618802 L96.8678633,41.1547733 Z M50.4637467,33.5832933 C51.7340133,33.5832933 52.9725467,34.23196 53.6716133,35.4014267 C54.72908,37.17196 54.1513467,39.4642267 52.38268,40.5216933 C51.7816133,40.8800933 51.1217467,41.0508933 50.47028,41.0508933 C49.2000133,41.0508933 47.96148,40.4022267 47.2624133,39.23276 C46.2049467,37.4622267 46.7817467,35.16996 48.5513467,34.1124933 C49.15148,33.7540933 49.81228,33.5832933 50.4637467,33.5832933 Z M88.9955733,33.2660533 C89.62744,33.2660533 90.2677067,33.4265867 90.8547733,33.76352 C92.6411733,34.7929867 93.25624,37.0749867 92.2277067,38.86232 C91.5379733,40.0616533 90.2807733,40.7336533 88.98904,40.7336533 C88.35624,40.7336533 87.7169067,40.57312 87.12984,40.2352533 C85.34344,39.20672 84.7283733,36.92472 85.7559733,35.1373867 C86.4475733,33.9380533 87.70384,33.2660533 88.9955733,33.2660533 Z M50.4637467,35.44996 L50.297164,35.4575347 C50.0206207,35.4827044 49.7509911,35.5702044 49.50988,35.7140933 C48.62508,36.2432933 48.33668,37.3912933 48.8640133,38.2742267 C49.20468,38.8444933 49.8057467,39.1842267 50.47028,39.1842267 C50.8044133,39.1842267 51.1348133,39.09276 51.4241467,38.91916 C52.3080133,38.3908933 52.5973467,37.2428933 52.06908,36.35996 C51.7546185,35.83356 51.2190729,35.5035908 50.6158685,35.4559411 L50.4637467,35.44996 Z M88.9965067,35.13272 C88.32824,35.13272 87.70664,35.49112 87.3743733,36.0688533 C86.86104,36.96112 87.16904,38.1044533 88.0613067,38.6168533 C88.3487733,38.7829867 88.66144,38.8669867 88.98904,38.8669867 C89.6563733,38.8669867 90.2779733,38.5085867 90.6093067,37.9308533 C90.8585067,37.49872 90.92384,36.9956533 90.79504,36.5140533 C90.6653067,36.0324533 90.35544,35.6301867 89.9233067,35.38192 C89.6367733,35.21672 89.3241067,35.13272 88.9965067,35.13272 Z M59.56832,29.6476133 C61.1941867,29.6476133 62.6893867,30.7172133 63.1569867,32.3589467 C63.7216533,34.34228 62.57272,36.4077467 60.5893867,36.9733467 C60.2477867,37.06948 59.9024533,37.1161467 59.5645867,37.1161467 C57.93872,37.1161467 56.44352,36.0456133 55.97592,34.4057467 C55.4112533,32.4224133 56.5601867,30.3569467 58.5425867,29.7913467 C58.88512,29.69428 59.22952,29.6476133 59.56832,29.6476133 Z M79.8272533,29.4807333 C80.1464533,29.4807333 80.4693867,29.5227333 80.7932533,29.6086 C82.7849867,30.1406 83.9684533,32.1864667 83.43552,34.1791333 C82.99032,35.8479333 81.4801867,36.9492667 79.83192,36.9492667 C79.51272,36.9492667 79.18792,36.9082 78.86592,36.8223333 C76.8732533,36.2903333 75.6897867,34.2435333 76.22272,32.2518 C76.66792,30.583 78.17712,29.4807333 79.8272533,29.4807333 Z M69.9999067,28.1910533 C72.06164,28.1910533 73.73324,29.8626533 73.73324,31.9243867 C73.73324,33.9870533 72.06164,35.65772 69.9999067,35.65772 C67.9381733,35.65772 66.2665733,33.9870533 66.2665733,31.9243867 C66.2665733,29.8626533 67.9381733,28.1910533 69.9999067,28.1910533 Z M59.56832,31.51428 C59.3956533,31.51428 59.22392,31.5385467 59.0549867,31.58708 C58.5761867,31.72428 58.1776533,32.0397467 57.9349867,32.47468 C57.69232,32.9105467 57.6344533,33.4145467 57.77072,33.89428 C57.9984533,34.69228 58.7357867,35.24948 59.5645867,35.24948 C59.7372533,35.24948 59.9089867,35.2261467 60.07792,35.1776133 C60.5576533,35.0404133 60.95432,34.7249467 61.1969867,34.2900133 C61.4396533,33.8541467 61.49752,33.3501467 61.3612533,32.8704133 C61.1344533,32.0724133 60.39712,31.51428 59.56832,31.51428 Z M79.8272533,31.3474 L79.6798209,31.3532536 C78.9000109,31.4153396 78.2314729,31.965651 78.02592,32.7334 C77.75992,33.7283333 78.35352,34.7522 79.34752,35.0191333 C79.50712,35.0611333 79.66952,35.0826 79.83192,35.0826 C80.6737867,35.0826 81.4148533,34.5132667 81.6332533,33.6975333 C81.76112,33.2159333 81.6948533,32.7128667 81.44472,32.2807333 C81.19552,31.8495333 80.7932533,31.5406 80.3116533,31.4118 C80.2052533,31.3831778 80.0971941,31.3640963 79.9891348,31.3545556 L79.8272533,31.3474 Z M69.9999067,30.05772 C68.97044,30.05772 68.13324,30.89492 68.13324,31.9243867 C68.13324,32.9547867 68.97044,33.7910533 69.9999067,33.7910533 C71.0293733,33.7910533 71.8665733,32.9547867 71.8665733,31.9243867 C71.8665733,30.89492 71.0293733,30.05772 69.9999067,30.05772 Z" id="Shape" fill="#00C8D5"></path>
                </g>
            </g>
        </g>
    </g>
</svg>