<?xml version="1.0" encoding="UTF-8"?>
<svg width="140px" height="140px" viewBox="0 0 140 140" version="1.1" xmlns="http://www.w3.org/2000/svg" xmlns:xlink="http://www.w3.org/1999/xlink">
    <title>Life Icon</title>
    <g id="Design" stroke="none" stroke-width="1" fill="none" fill-rule="evenodd">
        <g id="Product---Step-5-(all-products)" transform="translate(-267.000000, -2470.000000)" fill="#00CBD8" fill-rule="nonzero">
            <g id="Group-8-Copy-5" transform="translate(235.000000, 2438.000000)">
                <g id="Life-Icon" transform="translate(32.000000, 32.000000)">
                    <path d="M140,0 L140,140 L0,140 L0,0 L140,0 Z M136.266667,3.73333333 L3.73333333,3.73333333 L3.73333333,136.266667 L136.266667,136.266667 L136.266667,3.73333333 Z M98.9333333,112.933333 L98.9333333,114.8 L37.3333333,114.8 L37.3333333,112.933333 L98.9333333,112.933333 Z M88.0394667,92.9497333 L95.7621335,61.0200617 L104.461467,104.186133 L108.560025,88.9333333 L120.4,88.9333333 L120.4,90.8 L109.990533,90.7993333 L104.201664,112.346656 L95.5957333,69.6453333 L88.4858517,99.0494131 L85.1601333,90.7993333 L74.6666667,90.8 L74.6666667,88.9333333 L86.4210994,88.9333333 L88.0394667,92.9497333 Z M94.2650451,29.8666667 C94.3659371,29.8675673 94.3664776,30.0234041 94.2666667,30.3341768 C94.2666667,42.7597031 87.2118645,55.9818436 73.1022603,70.0005982 C77.5664752,74.4358164 81.3244615,78.7913286 84.376219,83.0671347 L82.0692191,83.0670649 C79.3480019,79.3893013 76.0866122,75.6399312 72.2819978,71.8195864 L71.7866353,71.3248245 L70.4537893,70.0006359 L71.7865976,68.6764093 C84.9110242,55.636489 91.7260465,43.4207538 92.3524341,32.0542065 L92.3682667,31.7174642 L88.4747942,31.687485 C74.994415,31.5940602 61.4533101,31.5943022 47.8514794,31.6882117 L43.8872,31.7183975 L43.8880123,31.7341363 C44.2975501,43.0414979 50.9528369,55.1984091 63.9772013,68.1768867 L64.4748592,68.6701352 L65.8179754,69.9942689 L64.480018,71.3236151 C51.355624,84.3635385 44.5406185,96.5792666 43.9142196,107.939357 L43.8974667,108.265731 L92.3673333,108.266664 L92.3524342,107.945799 C92.2565655,106.206151 92.0157316,104.446619 91.6294996,102.667294 L93.5380935,102.667363 C94.023809,105.027592 94.2666667,107.360412 94.2666667,109.665823 L94.2650451,110.133333 L42.0018667,110.1324 L42,109.665823 C42,97.2403175 49.0547845,84.0181857 63.1643535,69.999428 C49.1579804,56.1910089 42.1039668,43.1553518 42.0023127,30.8924567 L42,30.3341768 L42.0018667,29.8676 C59.5232776,29.7123529 76.9443371,29.7120417 94.2650451,29.8666667 Z M54.9142321,53.1986619 L81.3177751,53.1992044 C78.905987,56.9489495 75.696126,60.7875753 71.6881923,64.7150817 L68.1381891,68.1333333 L64.5997851,64.7142585 C60.5606877,60.7868653 57.33217,56.9483331 54.9142321,53.1986619 Z M77.7479016,55.0650445 L58.4913683,55.0650445 L58.8023557,55.4770077 C60.6337739,57.8738143 62.8038482,60.3151028 65.3120666,62.7981371 L65.8968886,63.3718848 L68.1401683,65.5398445 L70.3817046,63.3818398 C73.1210227,60.6974916 75.472245,58.0631679 77.4361496,55.4808103 L77.7479016,55.0650445 Z M98.9333333,25.2 L98.9333333,27.0666667 L37.3333333,27.0666667 L37.3333333,25.2 L98.9333333,25.2 Z" id="Shape"></path>
                </g>
            </g>
        </g>
    </g>
</svg>